<svg width="64" height="64" xmlns="http://www.w3.org/2000/svg" xmlns:xlink="http://www.w3.org/1999/xlink" xml:space="preserve" overflow="hidden"><defs><clipPath id="clip0"><rect x="0" y="0" width="64" height="64"/></clipPath></defs><g clip-path="url(#clip0)"><path d="M13.3333 8.66667 9.33333 8.66667 9.33333 55.3333 55.3333 55.3333 55.3333 51.3333 13.3333 51.3333 13.3333 8.66667Z" fill="#00B0F0"/><path d="M55.3333 47.3333 45.3333 47.3333 45.3333 8.66666 55.3333 8.66666Z" fill="#00B0F0"/><path d="M41.3333 47.3333 31.3333 47.3333 31.3333 22 41.3333 22Z" fill="#00B0F0"/><path d="M27.3333 47.3333 17.3333 47.3333 17.3333 34 27.3333 34Z" fill="#00B0F0"/><path d="M38.6667 17.8267 38.6667 8.66667 29.5067 8.66667 33.1467 12.3067 17.06 28.3933 18.94 30.2733 35.0267 14.1933 38.6667 17.8267Z" fill="#00B0F0"/></g></svg>