<svg width="64" height="64" xmlns="http://www.w3.org/2000/svg" xmlns:xlink="http://www.w3.org/1999/xlink" xml:space="preserve" overflow="hidden"><defs><clipPath id="clip0"><rect x="0" y="0" width="64" height="64"/></clipPath></defs><g clip-path="url(#clip0)"><path d="M35.1667 26.0333 29.2933 26.0333C28.7411 26.0333 28.2933 26.4811 28.2933 27.0333 28.2933 27.5856 28.7411 28.0333 29.2933 28.0333L35.1667 28.0333C35.7189 28.0333 36.1667 27.5856 36.1667 27.0333 36.1667 26.4811 35.7189 26.0333 35.1667 26.0333Z" fill="#0070C0"/><path d="M32.2267 31.3333C33.3534 31.3323 34.2863 30.4577 34.36 29.3333L30.1 29.3333C30.1703 30.4566 31.1012 31.332 32.2267 31.3333Z" fill="#0070C0"/><path d="M32.2267 6.96 32.2267 6.96C27.5707 6.9918 23.7898 10.7313 23.7067 15.3867L23.7067 15.68C23.7293 16.7025 23.9301 17.7132 24.3 18.6667 24.6445 19.5574 25.1458 20.3793 25.78 21.0933 26.5706 22.0917 27.2418 23.1791 27.78 24.3333 27.8919 24.5554 28.1181 24.6967 28.3667 24.7L36.1 24.7C36.3486 24.6967 36.5748 24.5554 36.6867 24.3333 37.2253 23.1794 37.8965 22.0921 38.6867 21.0933 39.3168 20.3775 39.8156 19.556 40.16 18.6667 40.5199 17.7219 40.7204 16.7238 40.7533 15.7133L40.7533 15.42C40.6845 10.7505 36.8965 6.99213 32.2267 6.96ZM38.7867 15.6267C38.7591 16.4138 38.6013 17.191 38.32 17.9267 38.0572 18.5873 37.6804 19.1965 37.2067 19.7267 36.4577 20.6344 35.8157 21.6254 35.2933 22.68L29.1667 22.68C28.6419 21.6253 27.9977 20.6343 27.2467 19.7267 26.775 19.1963 26.4004 18.587 26.14 17.9267 25.8587 17.191 25.7009 16.4138 25.6733 15.6267L25.6733 15.3867C25.7349 11.8051 28.6447 8.92787 32.2267 8.90667L32.2267 8.90667C35.8098 8.9278 38.7216 11.8041 38.7867 15.3867Z" fill="#0070C0"/><path d="M29.0133 17.5533 32.54 10.6667 32.54 14.6533 36.2 13.9267 32.54 20.6667 32.54 16.7533 29.0133 17.5533Z" fill="#0070C0"/><path d="M51.2267 35.6867C51.2267 38.5512 48.9045 40.8733 46.04 40.8733 43.1755 40.8733 40.8533 38.5512 40.8533 35.6867 40.8533 32.8222 43.1755 30.5 46.04 30.5 48.9045 30.5 51.2267 32.8222 51.2267 35.6867Z" fill="#0070C0"/><path d="M23.56 35.6867C23.56 38.5512 21.2379 40.8733 18.3733 40.8733 15.5088 40.8733 13.1867 38.5512 13.1867 35.6867 13.1867 32.8222 15.5088 30.5 18.3733 30.5 21.2379 30.5 23.56 32.8222 23.56 35.6867Z" fill="#0070C0"/><path d="M55.3733 45.3667C53.8793 44.2031 52.1507 43.3775 50.3067 42.9467 48.919 42.5419 47.485 42.3178 46.04 42.28 44.5916 42.2768 43.1517 42.5018 41.7733 42.9467 40.3925 43.3147 39.0721 43.8805 37.8533 44.6267 37.7733 44.72 37.7 44.8133 37.6133 44.9 39.5521 45.4218 41.3659 46.3287 42.9467 47.5667 44.194 48.4771 44.9222 49.9359 44.9 51.48L44.9 52.6667 56.4133 52.6667 56.4133 47.4467C56.4334 46.6237 56.0437 45.8444 55.3733 45.3667Z" fill="#0070C0"/><path d="M19.5267 51.48C19.5281 49.9799 20.2158 48.5628 21.3933 47.6333L21.4733 47.5667 21.56 47.5067C23.1588 46.3693 24.9273 45.4919 26.8 44.9067 26.6667 44.7667 26.5467 44.62 26.42 44.4733 25.2484 43.7875 23.9844 43.2733 22.6667 42.9467 21.2791 42.5413 19.845 42.3172 18.4 42.28 16.9516 42.2773 15.5119 42.5023 14.1333 42.9467 12.315 43.4483 10.5997 44.2677 9.06667 45.3667 8.41 45.8589 8.01653 46.6261 8 47.4467L8 52.6667 19.5267 52.6667Z" fill="#0070C0"/><path d="M21.8333 56.6667 21.8333 51.48C21.8365 50.6642 22.2213 49.8969 22.8733 49.4067 24.4036 48.303 26.1198 47.4833 27.94 46.9867 29.3178 46.5392 30.7581 46.3141 32.2067 46.32 33.652 46.3539 35.0865 46.5781 36.4733 46.9867 38.3209 47.4131 40.0526 48.2391 41.5467 49.4067 42.2144 49.883 42.6017 50.6601 42.58 51.48L42.58 56.6667Z" fill="#0070C0"/><path d="M37.3933 39.72C37.3933 42.5845 35.0712 44.9067 32.2067 44.9067 29.3422 44.9067 27.02 42.5845 27.02 39.72 27.02 36.8555 29.3422 34.5333 32.2067 34.5333 35.0712 34.5333 37.3933 36.8555 37.3933 39.72Z" fill="#0070C0"/></g></svg>