<svg width="64" height="64" xmlns="http://www.w3.org/2000/svg" xmlns:xlink="http://www.w3.org/1999/xlink" xml:space="preserve" overflow="hidden"><defs><clipPath id="clip0"><rect x="0" y="0" width="64" height="64"/></clipPath></defs><g clip-path="url(#clip0)"><path d="M50.6667 40 13.3333 40 13.3333 17.3333 50.6667 17.3333 50.6667 40ZM54.6667 16C54.6667 14.5333 53.4667 13.3333 52 13.3333L12 13.3333C10.5333 13.3333 9.33333 14.5333 9.33333 16L9.33333 44 54.6667 44 54.6667 16Z" fill="#ED7D31"/><path d="M36 46.6667 36 47.3333C36 47.7333 35.7333 48 35.3333 48L28.6667 48C28.2667 48 28 47.7333 28 47.3333L28 46.6667 1.33333 46.6667 1.33333 48C1.33333 49.4667 2.53333 50.6667 4 50.6667L60 50.6667C61.4667 50.6667 62.6667 49.4667 62.6667 48L62.6667 46.6667 36 46.6667Z" fill="#ED7D31"/></g></svg>