<svg width="64" height="64" xmlns="http://www.w3.org/2000/svg" xmlns:xlink="http://www.w3.org/1999/xlink" xml:space="preserve" overflow="hidden"><defs><clipPath id="clip0"><rect x="0" y="0" width="64" height="64"/></clipPath></defs><g clip-path="url(#clip0)"><path d="M6.66667 22.6667 11.3333 22.6667 11.3333 25.3333 6.66667 25.3333Z" fill="#7030A0"/><path d="M6.66667 17.3333 11.3333 17.3333 11.3333 20 6.66667 20Z" fill="#7030A0"/><path d="M6.66667 28 11.3333 28 11.3333 30.6667 6.66667 30.6667Z" fill="#7030A0"/><path d="M6.66667 44 11.3333 44 11.3333 46.6667 6.66667 46.6667Z" fill="#7030A0"/><path d="M6.66667 38.6667 11.3333 38.6667 11.3333 41.3333 6.66667 41.3333Z" fill="#7030A0"/><path d="M6.66667 33.3333 11.3333 33.3333 11.3333 36 6.66667 36Z" fill="#7030A0"/><path d="M52.6667 38.6667 57.3333 38.6667 57.3333 41.3333 52.6667 41.3333Z" fill="#7030A0"/><path d="M52.6667 44 57.3333 44 57.3333 46.6667 52.6667 46.6667Z" fill="#7030A0"/><path d="M52.6667 33.3333 57.3333 33.3333 57.3333 36 52.6667 36Z" fill="#7030A0"/><path d="M52.6667 17.3333 57.3333 17.3333 57.3333 20 52.6667 20Z" fill="#7030A0"/><path d="M52.6667 28 57.3333 28 57.3333 30.6667 52.6667 30.6667Z" fill="#7030A0"/><path d="M52.6667 22.6667 57.3333 22.6667 57.3333 25.3333 52.6667 25.3333Z" fill="#7030A0"/><path d="M33.3333 6.66667 36 6.66667 36 11.3333 33.3333 11.3333Z" fill="#7030A0"/><path d="M44 6.66667 46.6667 6.66667 46.6667 11.3333 44 11.3333Z" fill="#7030A0"/><path d="M38.6667 6.66667 41.3333 6.66667 41.3333 11.3333 38.6667 11.3333Z" fill="#7030A0"/><path d="M28 6.66667 30.6667 6.66667 30.6667 11.3333 28 11.3333Z" fill="#7030A0"/><path d="M17.3333 6.66667 20 6.66667 20 11.3333 17.3333 11.3333Z" fill="#7030A0"/><path d="M22.6667 6.66667 25.3333 6.66667 25.3333 11.3333 22.6667 11.3333Z" fill="#7030A0"/><path d="M22.6667 52.6667 25.3333 52.6667 25.3333 57.3333 22.6667 57.3333Z" fill="#7030A0"/><path d="M17.3333 52.6667 20 52.6667 20 57.3333 17.3333 57.3333Z" fill="#7030A0"/><path d="M28 52.6667 30.6667 52.6667 30.6667 57.3333 28 57.3333Z" fill="#7030A0"/><path d="M33.3333 52.6667 36 52.6667 36 57.3333 33.3333 57.3333Z" fill="#7030A0"/><path d="M38.6667 52.6667 41.3333 52.6667 41.3333 57.3333 38.6667 57.3333Z" fill="#7030A0"/><path d="M44 52.6667 46.6667 52.6667 46.6667 57.3333 44 57.3333Z" fill="#7030A0"/><path d="M23.3333 23.3333 40.6667 23.3333 40.6667 40.6667 23.3333 40.6667Z" fill="#7030A0"/><path d="M47.3333 14 16.6667 14C15.1939 14 14 15.1939 14 16.6667L14 47.3333C14 48.8061 15.1939 50 16.6667 50L47.3333 50C48.8061 50 50 48.8061 50 47.3333L50 16.6667C50 15.1939 48.8061 14 47.3333 14ZM43.3333 43.3333 20.6667 43.3333 20.6667 20.6667 43.3333 20.6667Z" fill="#7030A0"/></g></svg>