<svg width="64" height="64" xmlns="http://www.w3.org/2000/svg" xmlns:xlink="http://www.w3.org/1999/xlink" xml:space="preserve" overflow="hidden"><defs><clipPath id="clip0"><rect x="0" y="0" width="64" height="64"/></clipPath></defs><g clip-path="url(#clip0)"><path d="M46.7333 13.3333 46.7333 36 35.5333 24.8 46.7333 13.3333ZM22.0667 11.3333 44.9333 11.3333 33.6667 23 22.0667 11.3333ZM21.4 47.4667 19 45.0667 21.4 39.8667 23.8 45.0667 21.4 47.4667ZM23.2667 49.4 25 47.6667 28.0667 54.2 23.2667 49.4ZM14.7333 54.1333 17.8 47.6 19.5333 49.3333 14.7333 54.1333ZM21.4 51.2 25.5333 55.3333 17.2667 55.3333 21.4 51.2ZM52.8 42.1333 49.4 38.6667 49.4 12.6667 50.0667 12C51.2 10.8667 51.2 9.13333 50.0667 8 48.9333 6.86667 47.2 6.86667 46.0667 8L45.4 8.66667 19.4 8.66667 16.6667 6C14.6 9.73333 13.4 14.1333 13.4 18.7333 13.4 25.5333 15.9333 31.6667 20.0667 36.4L11.3333 55.2C11.0667 55.8 11.0667 56.5333 11.4667 57.1333 11.8667 57.7333 12.4667 58.0667 13.1333 58.0667L29.7333 58.0667C30.4 58.0667 31.0667 57.7333 31.4 57.1333 31.7333 56.5333 31.8 55.8667 31.5333 55.2L24.6 40.4C29 43.4667 34.3333 45.3333 40.0667 45.3333 44.6667 45.4 49 44.1333 52.8 42.1333Z" fill="#00B050"/></g></svg>