<svg width="64" height="64" xmlns="http://www.w3.org/2000/svg" xmlns:xlink="http://www.w3.org/1999/xlink" xml:space="preserve" overflow="hidden"><defs><clipPath id="clip0"><rect x="0" y="0" width="64" height="64"/></clipPath></defs><g clip-path="url(#clip0)"><path d="M26.3333 28.2667 28.2 26.4C27.2667 25.4 26.6667 24.0667 26.6667 22.6 26.6667 21.1333 27.2667 19.8 28.2 18.8L26.3333 16.9333C24.8667 18.4 24 20.4 24 22.6 24 24.8 24.8667 26.8 26.3333 28.2667Z" fill="#FFC000"/><path d="M22.6 32 24.4667 30.1333C22.5333 28.2 21.3333 25.5333 21.3333 22.6 21.3333 19.6667 22.5333 17 24.4667 15.0667L22.6 13.2C20.1333 15.6 18.6667 18.9333 18.6667 22.6 18.6667 26.2667 20.1333 29.6 22.6 32Z" fill="#FFC000"/><path d="M20.6667 33.9333C17.8 31.0667 16 27.0667 16 22.6 16 18.1333 17.8 14.2 20.6667 11.2667L18.8 9.4C15.4 12.8 13.3333 17.4667 13.3333 22.6 13.3333 27.7333 15.4 32.4 18.8 35.8L20.6667 33.9333Z" fill="#FFC000"/><path d="M37.6667 28.2667C39.1333 26.8 40 24.8 40 22.6 40 20.4 39.1333 18.4 37.6667 16.9333L35.8 18.8C36.7333 19.7333 37.3333 21.0667 37.3333 22.6 37.3333 24.1333 36.7333 25.4 35.8 26.4L37.6667 28.2667Z" fill="#FFC000"/><path d="M39.5333 30.1333 41.4 32C43.8667 29.6 45.3333 26.2667 45.3333 22.6 45.3333 18.9333 43.8667 15.6 41.4 13.2L39.5333 15.0667C41.4667 17 42.6667 19.6667 42.6667 22.6 42.6667 25.5333 41.4667 28.2 39.5333 30.1333Z" fill="#FFC000"/><path d="M43.3333 33.9333 45.2 35.8C48.6 32.4 50.6667 27.7333 50.6667 22.6 50.6667 17.4667 48.6 12.8 45.2 9.4L43.3333 11.2667C46.2 14.1333 48 18.1333 48 22.6 48 27.0667 46.2 31 43.3333 33.9333Z" fill="#FFC000"/><path d="M49.3333 49.2667C48.6 49.2667 48 48.6667 48 47.9333 48 47.2 48.6 46.6 49.3333 46.6 50.0667 46.6 50.6667 47.2 50.6667 47.9333 50.6667 48.6667 50.0667 49.2667 49.3333 49.2667ZM42.6667 49.2667C41.9333 49.2667 41.3333 48.6667 41.3333 47.9333 41.3333 47.2 41.9333 46.6 42.6667 46.6 43.4 46.6 44 47.2 44 47.9333 44 48.6667 43.4 49.2667 42.6667 49.2667ZM36 49.2667C35.2667 49.2667 34.6667 48.6667 34.6667 47.9333 34.6667 47.2 35.2667 46.6 36 46.6 36.7333 46.6 37.3333 47.2 37.3333 47.9333 37.3333 48.6667 36.7333 49.2667 36 49.2667ZM29.3333 49.2667C28.6 49.2667 28 48.6667 28 47.9333 28 47.2 28.6 46.6 29.3333 46.6 30.0667 46.6 30.6667 47.2 30.6667 47.9333 30.6667 48.6667 30.0667 49.2667 29.3333 49.2667ZM16 50.6C14.5333 50.6 13.3333 49.4 13.3333 47.9333 13.3333 46.4667 14.5333 45.2667 16 45.2667 17.4667 45.2667 18.6667 46.4667 18.6667 47.9333 18.6667 49.4 17.4667 50.6 16 50.6ZM52 41.2667 33.3333 41.2667 33.3333 24.8667C34.1333 24.4 34.6667 23.5333 34.6667 22.6 34.6667 21.1333 33.4667 19.9333 32 19.9333 30.5333 19.9333 29.3333 21.1333 29.3333 22.6 29.3333 23.6 29.8667 24.4667 30.6667 24.8667L30.6667 41.2667 12 41.2667C10.5333 41.2667 9.33333 42.4667 9.33333 43.9333L9.33333 51.9333C9.33333 53.4 10.5333 54.6 12 54.6L52 54.6C53.4667 54.6 54.6667 53.4 54.6667 51.9333L54.6667 43.9333C54.6667 42.4667 53.4667 41.2667 52 41.2667Z" fill="#FFC000"/></g></svg>