<svg width="64" height="64" xmlns="http://www.w3.org/2000/svg" xmlns:xlink="http://www.w3.org/1999/xlink" xml:space="preserve" overflow="hidden"><defs><clipPath id="clip0"><rect x="0" y="0" width="64" height="64"/></clipPath></defs><g clip-path="url(#clip0)"><path d="M42.9467 48 20.9467 48C18.1853 48 15.9467 50.2386 15.9467 53 15.9467 55.7614 18.1853 58 20.9467 58L42.9467 58C45.7081 58 47.9467 55.7614 47.9467 53 47.9467 50.2386 45.7081 48 42.9467 48ZM22.28 55C21.1754 55 20.28 54.1046 20.28 53 20.28 51.8954 21.1754 51 22.28 51 23.3846 51 24.28 51.8954 24.28 53 24.28 54.1046 23.3846 55 22.28 55ZM31.9467 55C30.8421 55 29.9467 54.1046 29.9467 53 29.9467 51.8954 30.8421 51 31.9467 51 33.0513 51 33.9467 51.8954 33.9467 53 33.9467 54.1046 33.0513 55 31.9467 55ZM41.6133 55C40.5087 55 39.6133 54.1046 39.6133 53 39.6133 51.8954 40.5087 51 41.6133 51 42.7179 51 43.6133 51.8954 43.6133 53 43.6133 54.1046 42.7179 55 41.6133 55Z" fill="#FF0000"/><path d="M36.5533 18.6667C36.5533 19.219 36.1056 19.6667 35.5533 19.6667 35.0011 19.6667 34.5533 19.219 34.5533 18.6667 34.5533 18.1144 35.0011 17.6667 35.5533 17.6667 36.1056 17.6667 36.5533 18.1144 36.5533 18.6667Z" fill="#FF0000"/><path d="M37.74 12 33.3333 12 33.3333 8.96667C34.6088 8.23027 35.0458 6.59938 34.3094 5.32393 33.573 4.04849 31.9421 3.61149 30.6667 4.34787 29.3912 5.08425 28.9542 6.71513 29.6906 7.9906 29.9247 8.396 30.2613 8.7326 30.6667 8.96667L30.6667 12 26.26 12C24.6452 12.0037 23.337 13.3119 23.3333 14.9267L23.3333 22.4067C23.337 24.0215 24.6452 25.3297 26.26 25.3333L37.74 25.3333C39.3548 25.3297 40.663 24.0215 40.6667 22.4067L40.6667 14.9267C40.663 13.3119 39.3548 12.0037 37.74 12ZM28.6667 20.6667C27.5621 20.6667 26.6667 19.7713 26.6667 18.6667 26.6667 17.5621 27.5621 16.6667 28.6667 16.6667 29.7713 16.6667 30.6667 17.5621 30.6667 18.6667 30.6667 19.7713 29.7713 20.6667 28.6667 20.6667ZM35.3333 20.6667C34.2287 20.6667 33.3333 19.7713 33.3333 18.6667 33.3333 17.5621 34.2287 16.6667 35.3333 16.6667 36.4379 16.6667 37.3333 17.5621 37.3333 18.6667 37.3333 19.7713 36.4379 20.6667 35.3333 20.6667Z" fill="#FF0000"/><path d="M29.8867 18.6667C29.8867 19.219 29.439 19.6667 28.8867 19.6667 28.3344 19.6667 27.8867 19.219 27.8867 18.6667 27.8867 18.1144 28.3344 17.6667 28.8867 17.6667 29.439 17.6667 29.8867 18.1144 29.8867 18.6667Z" fill="#FF0000"/><path d="M49.3333 39.2133 49.3333 33.66C49.3333 32.0068 47.9932 30.6667 46.34 30.6667L42.6667 30.6667 42.6667 27.3333 21.3333 27.3333 21.3333 31.3333 16.3267 31.3333C16.1463 31.3333 16 31.1871 16 31.0067L16 25.48C18.2917 24.8032 19.6009 22.3967 18.9241 20.1051 18.7426 19.4907 18.427 18.9243 18 18.4467L16 20.22C16.2797 20.5242 16.4386 20.9201 16.4467 21.3333 16.4417 22.2538 15.6914 22.9959 14.7709 22.9909 13.8505 22.9859 13.1084 22.2357 13.1134 21.3152 13.1155 20.9176 13.2597 20.5339 13.52 20.2333L11.52 18.48C9.94873 20.2852 10.1384 23.0223 11.9436 24.5936 12.352 24.9491 12.8233 25.2249 13.3333 25.4067L13.3333 31.0067C13.3333 32.6599 14.6735 34 16.3267 34L21.3333 34 21.3333 46 42.6667 46 42.6667 33.3333 46.34 33.3333C46.5204 33.3333 46.6667 33.4796 46.6667 33.66L46.6667 39.2133C44.3896 39.9499 43.1409 42.393 43.8775 44.6701 44.0619 45.2399 44.3623 45.7654 44.76 46.2133L46.76 44.44C46.4841 44.1376 46.3319 43.7427 46.3333 43.3333 46.3341 42.4129 47.0809 41.6673 48.0014 41.6681 48.9219 41.6689 49.6675 42.4157 49.6667 43.3361 49.6663 43.7399 49.5195 44.1297 49.2533 44.4333L51.2533 46.1867C52.8307 44.3917 52.6544 41.6579 50.8595 40.0805 50.4154 39.6902 49.8959 39.3951 49.3333 39.2133ZM40 36.6667 38.1467 36.6667C38.0822 36.6782 38.0209 36.7032 37.9667 36.74L35.9267 38.8267 34.3733 35.1467 31.4733 41.1467 29.44 33.3333 27.8733 36.6667 24.6667 36.6667 24.6667 35.3333 27.0267 35.3333 29.8 29.4333 31.8533 37.2867 34.46 31.9533 36.38 36.5 37.0467 35.8333C37.3394 35.5371 37.731 35.3591 38.1467 35.3333L40 35.3333Z" fill="#FF0000"/></g></svg>