<svg width="64" height="64" xmlns="http://www.w3.org/2000/svg" xmlns:xlink="http://www.w3.org/1999/xlink" xml:space="preserve" overflow="hidden"><defs><clipPath id="clip0"><rect x="0" y="0" width="64" height="64"/></clipPath></defs><g clip-path="url(#clip0)"><path d="M31.4 13.1333C29.8667 13.1333 28.6 14.4 28.6 15.9333 28.6 17.4667 29.8667 18.7333 31.4 18.7333 32.9333 18.7333 34.2 17.4667 34.2 15.9333 34.2 14.4 32.9333 13.1333 31.4 13.1333Z"/><path d="M25.8 29.4667C25.8 31.0131 24.5464 32.2667 23 32.2667 21.4536 32.2667 20.2 31.0131 20.2 29.4667 20.2 27.9203 21.4536 26.6667 23 26.6667 24.5464 26.6667 25.8 27.9203 25.8 29.4667Z"/><path d="M39.3333 16.8667 37.6667 17.6667C37.5333 18.2 37.2667 18.6667 37 19.1333L37.6 20.8667 36.2667 22.2 34.5333 21.6C34.0667 21.8667 33.6 22.0667 33.0667 22.2L32.2667 23.8 30.4 23.8 29.6 22.1333C29.0667 22 28.6 21.8 28.1333 21.5333L26.4 22.1333 25.0667 20.8 25.6667 19.0667C25.4 18.6 25.2 18.1333 25.0667 17.6L23.4 16.8 23.4 14.9333 25.0667 14.1333C25.2 13.6 25.4 13.1333 25.6667 12.6667L25.1333 10.9333 26.4667 9.6 28.2 10.2C28.6667 9.93333 29.1333 9.73333 29.6667 9.6L30.4667 7.93333 32.3333 7.93333 33.1333 9.53333C33.6667 9.66667 34.1333 9.86667 34.6 10.1333L36.3333 9.53333 37.6667 10.8667 37.0667 12.6C37.3333 13.0667 37.5333 13.5333 37.6667 14.0667L39.3333 14.8667 39.3333 16.8667ZM30.9333 30.4 29.2667 31.2C29.1333 31.7333 28.9333 32.2 28.6667 32.6667L29.2 34.4 27.8667 35.7333 26.1333 35.1333C25.6667 35.4 25.2 35.6 24.6667 35.7333L23.9333 37.3333 22.0667 37.3333 21.2667 35.6667C20.7333 35.5333 20.2667 35.3333 19.8 35.0667L18.0667 35.6 16.7333 34.2667 17.3333 32.5333C17.0667 32.0667 16.8667 31.6 16.7333 31.0667L15.0667 30.2667 15.0667 28.4 16.7333 27.6C16.8667 27.0667 17.0667 26.6 17.3333 26.1333L16.7333 24.4 18.0667 23.0667 19.8 23.6667C20.2667 23.4 20.7333 23.2 21.2667 23.0667L22.0667 21.4 24 21.4 24.8 23.0667C25.3333 23.2 25.8 23.4 26.2667 23.6667L28 23.0667 29.3333 24.4 28.7333 26.1333C29 26.6 29.2 27.0667 29.3333 27.6L31 28.4 30.9333 30.4 30.9333 30.4ZM54 32.8667 49.4 24.8667 49.4 24.5333C49.6667 17.2 45.9333 10.3333 39.6 6.53333 33.2667 2.8 25.4667 2.8 19.1333 6.53333 12.8 10.2667 9.06667 17.2 9.33333 24.5333 9.33333 30.8667 12.2 36.8 17.2 40.6667L17.2 57.5333 38.2667 57.5333 38.2667 49.5333 41.5333 49.5333C43.6667 49.5333 45.6667 48.6667 47.1333 47.2 48.6 45.6667 49.4 43.6667 49.4 41.5333L49.4 37.5333 52.3333 37.5333C54.0667 37.3333 55.6 35.3333 54 32.8667Z"/></g></svg>